<svg width="375" height="346" xmlns="http://www.w3.org/2000/svg">
 <g>
  <title>background</title>
  <rect x="-1" y="-1" width="377" height="348" id="canvas_background" fill="none"/>
 </g>

 <g>
  <title>Layer 1</title>
  <path d="m298,52.5c20.759,0.0705 37.783,-22.3181 56.412,-32.9861c5,-2.86299 16.924,-5.31996 18.588,-11.0139c-23.419,0.14005 -65.595,21.8001 -75,44z" fill="#174120" id="svg_10"/>
  <path d="m324.5,343.5c-95.065,-49.821 -221.799,-77.706 -273.1198,-183.922c-28.1211,-58.2015 9.8144,-146.97128 84.1198,-138.842c26.186,2.8648 34.585,18.0799 52,33.764c-1.136,-32.0298 -31.193,-46.67227 -60,-46.99249c-45.33,-0.50388 -79.359,17.97779 -100.7727,58.99249c-24.1468,46.25 -9.5781,97.65 21.9828,136.04c47.7209,58.048 120.9129,91.585 189.7899,117.056c25.937,9.592 58.275,23.894 86,23.904z" fill="#3cb54a" id="svg_119"/>
  <path d="m274.784,14.2784c-11.106,6.6122 3.976,31.4292 16.031,23.1148c10.329,-7.1249 -4.314,-30.09083 -16.031,-23.1148z" fill="#174120" id="svg_130"/>
  <path d="m193,55.5c33.117,-12.9948 96.432,-11.5367 97.802,38.0411c0.566,20.4849 -11.516,32.1059 -21.802,47.9589l0,-3c-37.545,20.678 -87.389,45.469 -113,80c7.902,1.115 21.247,-14.101 28,-18.393c26.221,-16.663 60.792,-22.807 83,-44.607c-16.784,35.441 -64.965,49.721 -55.306,97c2.076,10.158 5.862,23.629 16.306,28c-5.125,-18.447 -14.305,-32.229 -7.006,-52.007c7.921,-21.466 30.605,-32.914 47.014,-47.244c27.193,-23.748 51.401,-62.913 44.573,-100.749c-6.363,-35.2544 -51.194,-42.0107 -80.581,-42c-12.487,0.0046 -33.838,3.8516 -39,17z" fill="#174120" id="svg_229"/>
 </g>
</svg>